<svg xmlns="http://www.w3.org/2000/svg"><symbol viewBox="0 0 59.657 56" id="icon-care"><title>care</title> <path fill="#9a4b71" d="M50.666,53.5h-2.979V35.62h-13.41V53.5H10.436V2.84h24.48v13.41h15.75V53.5z M20.867,31.151h-7.451v7.45
		h7.451V31.151z M20.867,41.58h-7.451v7.45h7.451V41.58z M31.297,31.151h-7.45v7.45h7.45V31.151z M31.297,41.58h-7.45v7.45h7.45
		V41.58z M20.867,10.645h-7.451v7.45h7.451V10.645z M20.867,21.075h-7.451v7.45h7.451V21.075z M31.297,10.645h-7.45v7.45h7.45V10.645
		z M31.297,21.075h-7.45v7.45h7.45V21.075z"/> </symbol><symbol viewBox="0 0 59.657 56" id="icon-half-home"><title>half-home</title> <g> <g> <g> <g> <polygon fill="#007f7f" points="29.461,11.882 11.939,29.402 11.939,50.673 25.098,50.673 25.098,36.173 29.439,36.173 
						29.488,11.904 				"/> </g> <polygon fill="#007f7f" points="29.488,3.998 27.422,6.069 6.09,27.397 6.09,31.534 29.488,8.136 			"/> </g> </g> <g> <g> <g> <polygon fill="#cce5e5" points="29.461,11.882 29.439,36.173 33.873,36.173 33.873,50.673 47.035,50.673 47.035,29.454 
						29.488,11.904 				"/> </g> <polygon fill="#cce5e5" points="47.035,21.548 47.035,9.851 41.188,9.851 41.188,15.698 31.557,6.069 29.488,3.998 29.488,8.136 
					52.883,31.534 52.883,27.394 			"/> </g> </g> </g> </symbol><symbol viewBox="0 0 59.657 56" id="icon-half-money-bag"><title>half-money-bag</title> <g> <g> <polygon fill="#cce5e5" points="30.5,4 41.422,4 33.066,12 30.5,12 			"/> <path fill="#cce5e5" d="M30.5,14h2.561L45.34,26.551L51.594,51H30.5V14z"/> </g> <g> <polygon fill="#007f7f" points="30.5,4 20.172,4 28.527,12 30.5,12 			"/> <path fill="#007f7f" d="M30.5,51H10l6.254-24.449L28.533,14H30.5V51z"/> </g> <g> <g> <path fill="#FFFFFF" d="M36.896,28.311c0-1.71-0.553-3.034-1.658-4.02c-1.105-0.986-2.588-1.467-4.455-1.467
					c-1.744,0-3.182,0.475-4.312,1.412c-1.129,0.938-1.695,2.114-1.695,3.947c0,1.279,0.365,2.816,1.105,3.816H24.5v4h1.957
					c0,0,0.014,0.463,0.014,0.604c0,0.656-0.102,1.441-0.303,2.329c-0.199,0.891-0.462,1.536-0.702,1.927
					c-0.242,0.388-0.966,0.717-0.966,0.971v3.102c0-0.595,1.944-0.893,3.261-0.893c0.832,0,1.841,0.148,2.987,0.445
					c1.182,0.299,2.094,0.447,2.707,0.447c0.973,0,1.787-0.184,2.424-0.551c0.639-0.367,1.054-0.83,1.239-1.389
					c0.182-0.555,0.276-1.246,0.276-2.518L37.408,39h-4.469c0,0,0.012,0.479,0.012,0.621c0,0.938-0.107,1.404-0.314,1.623
					c-0.221,0.219-0.504,0.273-0.854,0.273c-0.158,0-0.338-0.046-0.541-0.081c-0.516-0.088-0.92-0.144-1.209-0.144
					c-0.211,0-0.445,0.015-0.709,0.058c-0.238,0.034-0.436,0.036-0.594,0.054c1.674-1.2,2.525-2.404,2.551-5.404H33.5v-4h-2.533
					c0,0-0.219-0.94-0.631-2.394c-0.385-1.333-0.58-2.136-0.58-2.617c0-0.378,0.115-0.661,0.344-0.96
					c0.229-0.298,0.516-0.419,0.867-0.419c0.271,0,0.498,0.102,0.678,0.28c0.18,0.182,0.032,0.393,0.063,0.624
					c0.027,0.231-0.208,0.785-0.208,1.644V30h5.264C36.852,30,36.896,28.775,36.896,28.311z"/> </g> </g> </g> </symbol><symbol viewBox="0 0 59.657 56" id="icon-home-grey"><title>home-grey</title> <g> <g> <polygon fill="#404040" points="30.231,11.114 11.839,29.504 11.839,51.831 25.652,51.831 25.652,36.61 34.86,36.61 34.86,51.831 
				48.678,51.831 48.678,29.559 30.259,11.139 		"/> </g> <polygon fill="#404040" points="48.678,21.261 48.678,8.983 42.539,8.983 42.539,15.119 32.43,5.014 30.259,2.84 28.088,5.014 
			5.699,27.4 5.699,31.742 30.259,7.183 54.815,31.742 54.815,27.397 	"/> </g> </symbol><symbol viewBox="0 0 59.657 56" id="icon-home"><title>home</title> <g> <g> <polygon fill="#007f7f" points="30.231,11.114 11.839,29.504 11.839,51.831 25.652,51.831 25.652,36.61 34.86,36.61 34.86,51.831 
				48.678,51.831 48.678,29.559 30.259,11.139 		"/> </g> <polygon fill="#007f7f" points="48.678,21.261 48.678,8.983 42.539,8.983 42.539,15.119 32.43,5.014 30.259,2.84 28.088,5.014 
			5.699,27.4 5.699,31.742 30.259,7.183 54.815,31.742 54.815,27.397 	"/> </g> </symbol><symbol viewBox="0 0 59.657 56" id="icon-living"><title>living</title>  <g> <polygon fill="#300d20" points="7.11,11.863 2.87,11.863 2.87,42.068 7.11,42.068 7.11,36.907 52.641,36.907 52.641,42.068 
		56.511,42.068 56.511,20.422 52.271,20.422 52.271,32.391 7.11,32.391 	"/> <path fill="#300d20" d="M20.444,22.252c-0.554-1.29-2.397-1.413-2.397-1.413H8.8v5.547h11.704
		C20.504,26.386,20.996,23.543,20.444,22.252z"/> <path fill="#300d20" d="M50.673,26.729c-0.553-1.29-2.395-1.413-2.395-1.413H8.8v4.546h41.935
		C50.734,29.862,51.227,28.019,50.673,26.729z"/> </g> </symbol><symbol viewBox="0 0 59.657 56" id="icon-money-bag"><title>money-bag</title> <g> <polygon fill="#007f7f" points="19.686,3.823 39.565,3.98 31.723,12 27.499,12 	"/> <path fill="#007f7f" d="M27.497,14h4.221l12.279,12.676l6.17,24.571L9.083,51.332l6.164-24.709L27.497,14z M35.553,29.311
			c0-1.71-0.553-3.034-1.658-4.02c-1.105-0.986-2.588-1.467-4.455-1.467c-1.744,0-3.182,0.475-4.312,1.412
			c-1.129,0.938-1.695,2.114-1.695,3.947c0,1.279,0.365,2.816,1.105,3.816h-0.88v4h1.457c0,0,0.014,0.463,0.014,0.604
			c0,0.656-0.102,1.441-0.303,2.329c-0.199,0.891-0.211,1.536-0.452,1.927c-0.242,0.388-0.716,0.717-0.716,0.971v3.102
			c0-0.595,1.694-0.893,3.011-0.893c0.832,0,1.716,0.148,2.863,0.445c1.182,0.299,2.031,0.447,2.644,0.447
			c0.973,0,1.756-0.184,2.393-0.551c0.639-0.367,1.038-0.83,1.223-1.389c0.182-0.555,0.269-1.246,0.269-2.518L36.065,40h-4.469
			c0,0,0.012,0.479,0.012,0.621c0,0.938-0.107,1.404-0.314,1.623c-0.221,0.219-0.504,0.273-0.854,0.273
			c-0.158,0-0.338-0.046-0.541-0.081c-0.516-0.088-0.92-0.144-1.209-0.144c-0.211,0-0.445,0.015-0.709,0.058
			c-0.238,0.034-0.436,0.036-0.594,0.054c1.674-1.2,2.525-2.404,2.551-5.404h2.719v-4h-3.034c0,0-0.219-0.94-0.631-2.394
			c-0.385-1.333-0.58-2.136-0.58-2.617c0-0.378,0.115-0.661,0.344-0.96c0.229-0.298,0.516-0.419,0.867-0.419
			c0.271,0,0.498,0.102,0.678,0.28c0.18,0.182,0.283,0.393,0.314,0.624c0.027,0.231,0.042,0.785,0.042,1.644V31h4.763
			C35.508,31,35.553,29.775,35.553,29.311z"/> </g> </symbol><symbol viewBox="0 0 59.657 56" id="icon-money"><title>money</title> <g> <path fill="#007f7f" d="M18,14.938C27.738,5.197,40.56,9.209,40.56,9.209c-3.625-3.629-8.643-5.874-14.18-5.874
			c-11.076,0-20.055,8.981-20.055,20.055c0,5.525,2.232,10.528,5.848,14.155C12.173,37.545,8.259,24.673,18,14.938z"/> <g> <path fill="#007f7f" d="M34.271,51.335c-11.076,0-20.057-8.979-20.057-20.055c0-11.074,8.98-20.054,20.057-20.054
				c11.074,0,20.055,8.98,20.055,20.054C54.326,42.357,45.345,51.335,34.271,51.335z M41.013,24.965c0-1.951-0.629-3.493-1.893-4.619
				c-1.26-1.126-2.957-1.689-5.09-1.689c-1.992,0-3.635,0.536-4.926,1.607c-1.295,1.071-1.939,2.653-1.939,4.746
				c0,1.461,0.42,2.994,1.262,4.595h-1.486v4.146h2.148c0.01,0.28,0.016,0.501,0.016,0.661c0,0.751-0.117,1.635-0.348,2.651
				c-0.229,1.016-0.482,1.748-0.76,2.194c-0.271,0.445-0.625,0.812-1.057,1.102v3.545c0.951-0.68,2.178-1.021,3.68-1.021
				c0.951,0,2.084,0.171,3.395,0.512c1.352,0.339,2.379,0.51,3.08,0.51c1.111,0,2.029-0.21,2.762-0.63
				c0.73-0.42,1.203-0.95,1.414-1.584c0.209-0.636,0.312-1.68,0.312-3.131l0.018-1.938h-5.109c0.012,0.481,0.016,0.801,0.016,0.96
				c0,1.071-0.119,1.734-0.361,1.983c-0.248,0.25-0.576,0.375-0.975,0.375c-0.18,0-0.385-0.019-0.615-0.059
				c-0.592-0.101-1.053-0.151-1.383-0.151c-0.24,0-0.512,0.025-0.811,0.075c-0.271,0.042-0.496,0.071-0.676,0.091
				c1.912-1.371,2.885-3.419,2.914-6.143h3.469v-4.146h-3.83c-0.008-0.32-0.25-1.311-0.721-2.974
				c-0.439-1.521-0.662-2.559-0.662-3.109c0-0.43,0.131-0.815,0.391-1.156c0.26-0.34,0.594-0.512,0.992-0.512
				c0.311,0,0.568,0.104,0.773,0.31c0.203,0.205,0.328,0.439,0.361,0.704c0.035,0.267,0.051,0.89,0.051,1.871v2.209h5.438
				C40.966,26.157,41.013,25.496,41.013,24.965z"/> </g> </g> </symbol><symbol viewBox="0 0 59.657 56" id="icon-partner"><title>partner</title> <g> <polygon fill="#007f7f" points="19.153,3.132 16.536,3.132 13.458,6.258 13.458,8.828 19.153,8.828 	"/> <polygon fill="#007f7f" points="10.61,11.675 3.491,25.912 5.032,27.097 12.034,14.523 12.034,25.912 12.034,51.539 13.458,51.539 
			16.303,25.912 19.153,51.539 20.575,51.539 20.575,25.912 20.575,14.523 27.694,27.335 29.118,25.912 21.999,11.675 	"/> <polygon fill="#007f7f" points="37.659,11.675 30.542,25.912 32.081,27.097 39.083,14.523 34.813,35.877 40.506,35.877 
			41.93,51.539 44.778,51.539 46.202,35.877 51.897,35.877 47.625,14.523 54.743,27.335 56.167,25.912 49.049,11.675 	"/> <polygon fill="#007f7f" points="46.202,3.132 44.028,3.132 40.506,6.258 40.506,8.828 46.202,8.828 	"/> </g> </symbol></svg>