<?xml version="1.0" encoding="utf-8"?>
<!-- Generator: Adobe Illustrator 16.0.0, SVG Export Plug-In . SVG Version: 6.00 Build 0)  -->
<!DOCTYPE svg PUBLIC "-//W3C//DTD SVG 1.1//EN" "http://www.w3.org/Graphics/SVG/1.1/DTD/svg11.dtd">
<svg version="1.1" class="optionIcon" xmlns="http://www.w3.org/2000/svg" xmlns:xlink="http://www.w3.org/1999/xlink" x="0px" y="0px" width="59.657px" height="56px" viewBox="0 0 59.657 56" enable-background="new 0 0 59.657 56" xml:space="preserve">
	<path fill="#9a4b71" d="M50.666,53.5h-2.979V35.62h-13.41V53.5H10.436V2.84h24.48v13.41h15.75V53.5z M20.867,31.151h-7.451v7.45
		h7.451V31.151z M20.867,41.58h-7.451v7.45h7.451V41.58z M31.297,31.151h-7.45v7.45h7.45V31.151z M31.297,41.58h-7.45v7.45h7.45
		V41.58z M20.867,10.645h-7.451v7.45h7.451V10.645z M20.867,21.075h-7.451v7.45h7.451V21.075z M31.297,10.645h-7.45v7.45h7.45V10.645
		z M31.297,21.075h-7.45v7.45h7.45V21.075z"/>
</svg>