<?xml version="1.0" encoding="utf-8"?>
<!-- Generator: Adobe Illustrator 16.0.0, SVG Export Plug-In . SVG Version: 6.00 Build 0)  -->
<!DOCTYPE svg PUBLIC "-//W3C//DTD SVG 1.1//EN" "http://www.w3.org/Graphics/SVG/1.1/DTD/svg11.dtd">
<svg version="1.1" xmlns="http://www.w3.org/2000/svg" xmlns:xlink="http://www.w3.org/1999/xlink" x="0px" y="0px" width="59.657px" height="56px" viewBox="0 0 59.657 56" enable-background="new 0 0 59.657 56" xml:space="preserve">
	<g>
		<g>
			<polygon fill="#cce5e5" points="30.5,4 41.422,4 33.066,12 30.5,12 			"/>
			<path fill="#cce5e5" d="M30.5,14h2.561L45.34,26.551L51.594,51H30.5V14z"/>
		</g>
		<g>
			<polygon fill="#007f7f" points="30.5,4 20.172,4 28.527,12 30.5,12 			"/>
			<path fill="#007f7f" d="M30.5,51H10l6.254-24.449L28.533,14H30.5V51z"/>
		</g>
		<g>
			<g>
				<path fill="#FFFFFF" d="M36.896,28.311c0-1.71-0.553-3.034-1.658-4.02c-1.105-0.986-2.588-1.467-4.455-1.467
					c-1.744,0-3.182,0.475-4.312,1.412c-1.129,0.938-1.695,2.114-1.695,3.947c0,1.279,0.365,2.816,1.105,3.816H24.5v4h1.957
					c0,0,0.014,0.463,0.014,0.604c0,0.656-0.102,1.441-0.303,2.329c-0.199,0.891-0.462,1.536-0.702,1.927
					c-0.242,0.388-0.966,0.717-0.966,0.971v3.102c0-0.595,1.944-0.893,3.261-0.893c0.832,0,1.841,0.148,2.987,0.445
					c1.182,0.299,2.094,0.447,2.707,0.447c0.973,0,1.787-0.184,2.424-0.551c0.639-0.367,1.054-0.83,1.239-1.389
					c0.182-0.555,0.276-1.246,0.276-2.518L37.408,39h-4.469c0,0,0.012,0.479,0.012,0.621c0,0.938-0.107,1.404-0.314,1.623
					c-0.221,0.219-0.504,0.273-0.854,0.273c-0.158,0-0.338-0.046-0.541-0.081c-0.516-0.088-0.92-0.144-1.209-0.144
					c-0.211,0-0.445,0.015-0.709,0.058c-0.238,0.034-0.436,0.036-0.594,0.054c1.674-1.2,2.525-2.404,2.551-5.404H33.5v-4h-2.533
					c0,0-0.219-0.94-0.631-2.394c-0.385-1.333-0.58-2.136-0.58-2.617c0-0.378,0.115-0.661,0.344-0.96
					c0.229-0.298,0.516-0.419,0.867-0.419c0.271,0,0.498,0.102,0.678,0.28c0.18,0.182,0.032,0.393,0.063,0.624
					c0.027,0.231-0.208,0.785-0.208,1.644V30h5.264C36.852,30,36.896,28.775,36.896,28.311z"/>
			</g>
		</g>
	</g>
</svg>