<?xml version="1.0" encoding="utf-8"?>
<!-- Generator: Adobe Illustrator 16.0.0, SVG Export Plug-In . SVG Version: 6.00 Build 0)  -->
<!DOCTYPE svg PUBLIC "-//W3C//DTD SVG 1.1//EN" "http://www.w3.org/Graphics/SVG/1.1/DTD/svg11.dtd">
<svg version="1.1" xmlns="http://www.w3.org/2000/svg" xmlns:xlink="http://www.w3.org/1999/xlink" x="0px" y="0px" width="59.657px" height="56px" viewBox="0 0 59.657 56" enable-background="new 0 0 59.657 56" xml:space="preserve">
	<g>
		<g>
			<g>
				<g>
					<polygon fill="#007f7f" points="29.461,11.882 11.939,29.402 11.939,50.673 25.098,50.673 25.098,36.173 29.439,36.173 
						29.488,11.904 				"/>
				</g>
				<polygon fill="#007f7f" points="29.488,3.998 27.422,6.069 6.09,27.397 6.09,31.534 29.488,8.136 			"/>
			</g>
		</g>
		<g>
			<g>
				<g>
					<polygon fill="#cce5e5" points="29.461,11.882 29.439,36.173 33.873,36.173 33.873,50.673 47.035,50.673 47.035,29.454 
						29.488,11.904 				"/>
				</g>
				<polygon fill="#cce5e5" points="47.035,21.548 47.035,9.851 41.188,9.851 41.188,15.698 31.557,6.069 29.488,3.998 29.488,8.136 
					52.883,31.534 52.883,27.394 			"/>
			</g>
		</g>
	</g>
</svg>