<?xml version="1.0" encoding="utf-8"?>
<!-- Generator: Adobe Illustrator 16.0.0, SVG Export Plug-In . SVG Version: 6.00 Build 0)  -->
<!DOCTYPE svg PUBLIC "-//W3C//DTD SVG 1.1//EN" "http://www.w3.org/Graphics/SVG/1.1/DTD/svg11.dtd">
<svg version="1.1" id="Layer_1" xmlns="http://www.w3.org/2000/svg" xmlns:xlink="http://www.w3.org/1999/xlink" x="0px" y="0px"
	 width="59.657px" height="56px" viewBox="0 0 59.657 56" enable-background="new 0 0 59.657 56" xml:space="preserve">
<g id="Layer_2">
</g>
<g>
	<polygon fill="#300d20" points="7.11,11.863 2.87,11.863 2.87,42.068 7.11,42.068 7.11,36.907 52.641,36.907 52.641,42.068 
		56.511,42.068 56.511,20.422 52.271,20.422 52.271,32.391 7.11,32.391 	"/>
	<path fill="#300d20" d="M20.444,22.252c-0.554-1.29-2.397-1.413-2.397-1.413H8.8v5.547h11.704
		C20.504,26.386,20.996,23.543,20.444,22.252z"/>
	<path fill="#300d20" d="M50.673,26.729c-0.553-1.29-2.395-1.413-2.395-1.413H8.8v4.546h41.935
		C50.734,29.862,51.227,28.019,50.673,26.729z"/>
</g>
</svg>
