<?xml version="1.0" encoding="utf-8"?>
<!-- Generator: Adobe Illustrator 16.0.0, SVG Export Plug-In . SVG Version: 6.00 Build 0)  -->
<!DOCTYPE svg PUBLIC "-//W3C//DTD SVG 1.1//EN" "http://www.w3.org/Graphics/SVG/1.1/DTD/svg11.dtd">
<svg version="1.1" xmlns="http://www.w3.org/2000/svg" xmlns:xlink="http://www.w3.org/1999/xlink" x="0px" y="0px" width="59.657px" height="56px" viewBox="0 0 59.657 56" enable-background="new 0 0 59.657 56" xml:space="preserve">
	<g>
		<polygon fill="#007f7f" points="19.686,3.823 39.565,3.98 31.723,12 27.499,12 	"/>
		<path fill="#007f7f" d="M27.497,14h4.221l12.279,12.676l6.17,24.571L9.083,51.332l6.164-24.709L27.497,14z M35.553,29.311
			c0-1.71-0.553-3.034-1.658-4.02c-1.105-0.986-2.588-1.467-4.455-1.467c-1.744,0-3.182,0.475-4.312,1.412
			c-1.129,0.938-1.695,2.114-1.695,3.947c0,1.279,0.365,2.816,1.105,3.816h-0.88v4h1.457c0,0,0.014,0.463,0.014,0.604
			c0,0.656-0.102,1.441-0.303,2.329c-0.199,0.891-0.211,1.536-0.452,1.927c-0.242,0.388-0.716,0.717-0.716,0.971v3.102
			c0-0.595,1.694-0.893,3.011-0.893c0.832,0,1.716,0.148,2.863,0.445c1.182,0.299,2.031,0.447,2.644,0.447
			c0.973,0,1.756-0.184,2.393-0.551c0.639-0.367,1.038-0.83,1.223-1.389c0.182-0.555,0.269-1.246,0.269-2.518L36.065,40h-4.469
			c0,0,0.012,0.479,0.012,0.621c0,0.938-0.107,1.404-0.314,1.623c-0.221,0.219-0.504,0.273-0.854,0.273
			c-0.158,0-0.338-0.046-0.541-0.081c-0.516-0.088-0.92-0.144-1.209-0.144c-0.211,0-0.445,0.015-0.709,0.058
			c-0.238,0.034-0.436,0.036-0.594,0.054c1.674-1.2,2.525-2.404,2.551-5.404h2.719v-4h-3.034c0,0-0.219-0.94-0.631-2.394
			c-0.385-1.333-0.58-2.136-0.58-2.617c0-0.378,0.115-0.661,0.344-0.96c0.229-0.298,0.516-0.419,0.867-0.419
			c0.271,0,0.498,0.102,0.678,0.28c0.18,0.182,0.283,0.393,0.314,0.624c0.027,0.231,0.042,0.785,0.042,1.644V31h4.763
			C35.508,31,35.553,29.775,35.553,29.311z"/>
	</g>
</svg>