<?xml version="1.0" encoding="utf-8"?>
<!-- Generator: Adobe Illustrator 16.0.0, SVG Export Plug-In . SVG Version: 6.00 Build 0)  -->
<!DOCTYPE svg PUBLIC "-//W3C//DTD SVG 1.1//EN" "http://www.w3.org/Graphics/SVG/1.1/DTD/svg11.dtd">
<svg version="1.1" xmlns="http://www.w3.org/2000/svg" xmlns:xlink="http://www.w3.org/1999/xlink" x="0px" y="0px" width="59.657px" height="56px" viewBox="0 0 59.657 56" enable-background="new 0 0 59.657 56" xml:space="preserve">
	<g>
		<path fill="#007f7f" d="M18,14.938C27.738,5.197,40.56,9.209,40.56,9.209c-3.625-3.629-8.643-5.874-14.18-5.874
			c-11.076,0-20.055,8.981-20.055,20.055c0,5.525,2.232,10.528,5.848,14.155C12.173,37.545,8.259,24.673,18,14.938z"/>
		<g>
			<path fill="#007f7f" d="M34.271,51.335c-11.076,0-20.057-8.979-20.057-20.055c0-11.074,8.98-20.054,20.057-20.054
				c11.074,0,20.055,8.98,20.055,20.054C54.326,42.357,45.345,51.335,34.271,51.335z M41.013,24.965c0-1.951-0.629-3.493-1.893-4.619
				c-1.26-1.126-2.957-1.689-5.09-1.689c-1.992,0-3.635,0.536-4.926,1.607c-1.295,1.071-1.939,2.653-1.939,4.746
				c0,1.461,0.42,2.994,1.262,4.595h-1.486v4.146h2.148c0.01,0.28,0.016,0.501,0.016,0.661c0,0.751-0.117,1.635-0.348,2.651
				c-0.229,1.016-0.482,1.748-0.76,2.194c-0.271,0.445-0.625,0.812-1.057,1.102v3.545c0.951-0.68,2.178-1.021,3.68-1.021
				c0.951,0,2.084,0.171,3.395,0.512c1.352,0.339,2.379,0.51,3.08,0.51c1.111,0,2.029-0.21,2.762-0.63
				c0.73-0.42,1.203-0.95,1.414-1.584c0.209-0.636,0.312-1.68,0.312-3.131l0.018-1.938h-5.109c0.012,0.481,0.016,0.801,0.016,0.96
				c0,1.071-0.119,1.734-0.361,1.983c-0.248,0.25-0.576,0.375-0.975,0.375c-0.18,0-0.385-0.019-0.615-0.059
				c-0.592-0.101-1.053-0.151-1.383-0.151c-0.24,0-0.512,0.025-0.811,0.075c-0.271,0.042-0.496,0.071-0.676,0.091
				c1.912-1.371,2.885-3.419,2.914-6.143h3.469v-4.146h-3.83c-0.008-0.32-0.25-1.311-0.721-2.974
				c-0.439-1.521-0.662-2.559-0.662-3.109c0-0.43,0.131-0.815,0.391-1.156c0.26-0.34,0.594-0.512,0.992-0.512
				c0.311,0,0.568,0.104,0.773,0.31c0.203,0.205,0.328,0.439,0.361,0.704c0.035,0.267,0.051,0.89,0.051,1.871v2.209h5.438
				C40.966,26.157,41.013,25.496,41.013,24.965z"/>
		</g>
	</g>
</svg>