<?xml version="1.0" encoding="utf-8"?>
<!-- Generator: Adobe Illustrator 16.0.0, SVG Export Plug-In . SVG Version: 6.00 Build 0)  -->
<!DOCTYPE svg PUBLIC "-//W3C//DTD SVG 1.1//EN" "http://www.w3.org/Graphics/SVG/1.1/DTD/svg11.dtd">
<svg version="1.1" xmlns="http://www.w3.org/2000/svg" xmlns:xlink="http://www.w3.org/1999/xlink" x="0px" y="0px" width="59.657px" height="56px" viewBox="0 0 59.657 56" enable-background="new 0 0 59.657 56" xml:space="preserve">
	<g>
		<polygon fill="#007f7f" points="19.153,3.132 16.536,3.132 13.458,6.258 13.458,8.828 19.153,8.828 	"/>
		<polygon fill="#007f7f" points="10.61,11.675 3.491,25.912 5.032,27.097 12.034,14.523 12.034,25.912 12.034,51.539 13.458,51.539 
			16.303,25.912 19.153,51.539 20.575,51.539 20.575,25.912 20.575,14.523 27.694,27.335 29.118,25.912 21.999,11.675 	"/>
		<polygon fill="#007f7f" points="37.659,11.675 30.542,25.912 32.081,27.097 39.083,14.523 34.813,35.877 40.506,35.877 
			41.93,51.539 44.778,51.539 46.202,35.877 51.897,35.877 47.625,14.523 54.743,27.335 56.167,25.912 49.049,11.675 	"/>
		<polygon fill="#007f7f" points="46.202,3.132 44.028,3.132 40.506,6.258 40.506,8.828 46.202,8.828 	"/>
	</g>
</svg>